<?xml version="1.0" encoding="utf-8"?>
<!-- Svg Vector Icons : http://www.onlinewebfonts.com/icon -->
<!DOCTYPE svg PUBLIC "-//W3C//DTD SVG 1.1//EN" "http://www.w3.org/Graphics/SVG/1.1/DTD/svg11.dtd">
<svg version="1.1" xmlns="http://www.w3.org/2000/svg" xmlns:xlink="http://www.w3.org/1999/xlink" x="0px" y="0px" viewBox="0 0 1000 1000" enable-background="new 0 0 1000 1000" xml:space="preserve">
<metadata> Svg Vector Icons : http://www.onlinewebfonts.com/icon </metadata>
<g><g transform="translate(0.000000,512.000000) scale(0.100000,-0.100000)"><path d="M4683.9,4420.3v-599.7l-128.4-32.6c-180.1-46-479-170.5-638-262.5c-641.8-373.6-1036.5-950.3-1186-1728.2c-74.7-388.9-136-1297.1-136-2038.5c0-705.1-76.6-1105.5-295.1-1542.3c-113-226.1-229.9-398.5-404.3-597.8L1752.5-2546V-2730v-182h182c99.6-1.9,1488.7-1.9,3084.7-1.9c1596,0,2975.4,0,3065.5,1.9h162.9v183.9v183.9l-95.8,105.4c-295.1,321.9-498.1,676.3-620.8,1078.7c-92,304.6-107.3,444.5-126.4,1254.9c-40.2,1680.3-134.1,2237.8-467.5,2797.3c-314.2,525-871.7,935-1490.6,1095.9l-130.3,32.6v599.7V5020H5000h-316.1V4420.3z"/><path d="M4785.4-3226.2c-206.9-67.1-371.7-218.4-471.3-429.2c-57.5-120.7-61.3-141.8-61.3-339.1c0-195.4,3.8-218.4,59.4-335.3c88.1-182,193.5-293.1,367.9-377.4c136-69,157.1-72.8,320-72.8c162.9,0,183.9,3.8,320,72.8c582.4,287.4,582.4,1149.6,0,1435c-105.4,51.7-147.5,61.3-289.3,67.1C4927.2-3201.3,4835.2-3208.9,4785.4-3226.2z"/></g></g>
</svg>