<?xml version="1.0" encoding="utf-8"?>
<!-- Svg Vector Icons : http://www.onlinewebfonts.com/icon -->
<!DOCTYPE svg PUBLIC "-//W3C//DTD SVG 1.1//EN" "http://www.w3.org/Graphics/SVG/1.1/DTD/svg11.dtd">
<svg version="1.1" xmlns="http://www.w3.org/2000/svg" xmlns:xlink="http://www.w3.org/1999/xlink" x="0px" y="0px" fill="currentColor" viewBox="0 0 1000 1000" enable-background="new 0 0 1000 1000" xml:space="preserve">
<metadata> Svg Vector Icons : http://www.onlinewebfonts.com/icon </metadata>
<g><path d="M499.4,990l-23.8-29.4c-31.3-38.6-114.4-141.3-190-255.2c-43-64.8-77-123.4-101.1-174.3c-30.8-65-45.7-117.3-45.7-159.8c0-48.4,9.6-95.5,28.7-140c18.3-42.9,44.5-81.5,77.7-114.8C278.5,83.1,317.1,57,360,38.7c44.5-19,91.7-28.7,140-28.7c97,0,188,37.8,256.2,106.5c33,33.2,58.8,71.9,76.9,114.9c18.7,44.4,28.1,91.4,28.1,139.9c0,42.8-15.1,95.6-46.3,161.5c-24.5,51.7-58.8,111-102.2,176.4c-87.7,132.3-179.9,241.6-190.1,253.7L499.4,990z M500,69.3c-40.3,0-79.6,8-116.7,23.9c-35.9,15.3-68.2,37.2-96.1,65.1c-27.9,27.9-49.8,60.2-65.1,96.1c-15.9,37.1-23.9,76.4-23.9,116.7c0,55.4,39.9,196.7,302.2,525.5c41.2-50.5,105.5-133.8,162.9-220.3C777.8,503.5,801.9,415,801.9,371.2c0-80.3-31.2-155.9-87.8-212.9C657.1,100.9,581.1,69.3,500,69.3z"/><path d="M500,532.2c-84.2,0-152.8-68.5-152.8-152.8c0-84.2,68.5-152.8,152.8-152.8s152.8,68.5,152.8,152.8C652.8,463.6,584.2,532.2,500,532.2z M500,285.9c-51.5,0-93.5,41.9-93.5,93.5s41.9,93.5,93.5,93.5c51.5,0,93.5-41.9,93.5-93.5C593.5,327.8,551.5,285.9,500,285.9z"/></g>
</svg>