<?xml version="1.0" encoding="utf-8"?>
<!-- Svg Vector Icons : http://www.onlinewebfonts.com/icon -->
<!DOCTYPE svg PUBLIC "-//W3C//DTD SVG 1.1//EN" "http://www.w3.org/Graphics/SVG/1.1/DTD/svg11.dtd">
<svg version="1.1" xmlns="http://www.w3.org/2000/svg" xmlns:xlink="http://www.w3.org/1999/xlink" x="0px" y="0px" viewBox="0 0 1000 1000" enable-background="new 0 0 1000 1000" xml:space="preserve">
<metadata> Svg Vector Icons : http://www.onlinewebfonts.com/icon </metadata>
<g><path d="M951.5,309.3c-24.7-58.4-60-110.8-105-155.8c-45-45-97.4-80.3-155.8-105C630.3,22.9,566.2,10,500,10c-66.2,0-130.3,13-190.8,38.5c-58.4,24.7-110.8,60-155.8,105s-80.3,97.4-105,155.8C22.9,369.7,10,433.9,10,500c0,66.1,12.9,130.3,38.5,190.7c24.7,58.3,60,110.8,105,155.7c45,45,97.4,80.3,155.8,105C369.7,977.1,433.8,990,500,990c0,0,0,0,0,0h0c66.1,0,130.3-13,190.7-38.5c58.3-24.7,110.7-60,155.7-105c45-45,80.3-97.4,105-155.7C977,630.3,990,566.1,990,500C990,433.9,977,369.7,951.5,309.3z M972,491H756.3c-0.8-60.5-9.9-119.9-27.1-177c26.1-10.8,50.1-23.7,71.6-38.5c38-26.2,59.6-52.4,70.2-67.5C934.7,288.5,970.1,387,972,491z M526.5,971.3c-5.8,0.3-11.7,0.5-17.5,0.7V663.6c83.7,0.9,148.6,14.9,197.9,33c-20.9,63.3-49.1,114.9-74.7,153.4C583.6,923,534.4,964.8,526.5,971.3z M368.3,850.6c-25.8-38.6-54.1-90.4-75.1-154c49.3-18.1,114.2-32.1,197.9-33V972c-5.9-0.1-11.7-0.3-17.5-0.6C465.6,964.9,416.8,923.4,368.3,850.6z M473.5,28.7c5.8-0.3,11.7-0.5,17.5-0.6v308.4c-83.7-0.9-148.6-14.9-197.9-33c20.9-63.3,49.1-114.9,74.7-153.4C416.4,77,465.6,35.2,473.5,28.7z M632.1,150c25.6,38.5,53.8,90.1,74.7,153.4c-49.3,18.2-114.2,32.1-197.9,33V28c5.9,0.1,11.7,0.3,17.5,0.6C534.4,35.2,583.6,77,632.1,150z M315.5,329.8c52.1,15.6,111.1,23.8,175.5,24.5V491H261.7c0.9-63.2,11.1-120.2,26.1-170.4C296.8,323.9,306,327,315.5,329.8z M491,509v136.7c-64.4,0.7-123.4,8.9-175.5,24.5c-9.5,2.8-18.7,5.9-27.8,9.2c-15-50.2-25.2-107.3-26.1-170.4H491z M684.5,670.2c-52.1-15.6-111.1-23.8-175.5-24.5V509h229.4c-0.9,63.2-11.1,120.2-26.1,170.4C703.2,676.1,694,673,684.5,670.2z M509,491V354.3c64.4-0.7,123.4-8.9,175.5-24.5c9.5-2.8,18.7-5.9,27.8-9.2c15,50.2,25.2,107.2,26.1,170.4H509z M833.8,166.2c8.8,8.8,17.2,17.9,25.2,27.3c-7.9,12.3-28.5,39.7-68.5,67.2c-17.2,11.9-39.3,24.5-66.9,36c-0.5-1.7-1.1-3.3-1.7-5c-18.2-53.3-43.6-104.6-75.4-152.3C611.8,87.2,577.3,51,556.4,31.2C661.1,43.6,758.1,90.5,833.8,166.2z M166.2,166.2C241.9,90.5,338.8,43.6,443.6,31.2c-20.9,19.8-55.4,56-90.2,108.2c-31.8,47.8-57.2,99-75.4,152.3c-0.6,1.7-1.1,3.3-1.7,5c-27.1-11.3-48.8-23.7-65.8-35.3c-40.5-27.7-61.5-55.6-69.5-68C149,184.1,157.4,175,166.2,166.2z M129,207.9c10.5,15.2,32.2,41.3,70.2,67.5c21.5,14.9,45.5,27.7,71.6,38.5c-17.2,57.1-26.3,116.5-27.1,177H28C29.9,387,65.3,288.5,129,207.9z M28,509h215.7c0.8,60.5,9.9,119.9,27.1,177c-26.1,10.8-50.1,23.7-71.6,38.5c-38,26.2-59.6,52.4-70.2,67.5C65.3,711.5,29.9,613,28,509z M166.2,833.8c-8.8-8.8-17.2-17.9-25.2-27.3c7.9-12.3,28.5-39.7,68.5-67.2c17.2-11.9,39.3-24.5,66.9-36c0.6,1.7,1.1,3.3,1.7,5c18.2,53.3,43.6,104.6,75.4,152.3c34.8,52.2,69.3,88.4,90.2,108.2C338.9,956.4,241.9,909.6,166.2,833.8z M500,979.3L500,979.3l0,1.8L500,979.3z M556.4,968.7c20.9-19.8,55.4-56,90.2-108.1c31.8-47.8,57.2-99,75.4-152.3c0.6-1.7,1.1-3.3,1.7-5c27.1,11.3,48.8,23.7,65.8,35.3c40.2,27.5,61.2,55.3,69.4,67.8C783.8,894.2,677,954.3,556.4,968.7z M870.8,791.9c-10.6-15.2-32.2-41.3-70-67.3c-21.5-14.8-45.5-27.7-71.6-38.5c17.2-57.1,26.3-116.5,27.1-177H972C970,615.6,932.5,713.7,870.8,791.9z"/></g>
</svg>